HIERARCHY
ROOT Hip
{
  OFFSET 0.0 0.0 0.0
  CHANNELS 6 Xposition Yposition Zposition Xrotation Yrotation Zrotation
  JOINT LowerSpine
  {
    OFFSET 0.0 0.061367 -0.03653
    CHANNELS 3 Xrotation Yrotation Zrotation
    JOINT MiddleSpine
    {
      OFFSET 0.0 0.056002 0.002633
      CHANNELS 3 Xrotation Yrotation Zrotation
      JOINT Chest
      {
        OFFSET 0.0 0.069296 -0.013882
        CHANNELS 3 Xrotation Yrotation Zrotation
        JOINT Neck
        {
          OFFSET 0.0 0.156156 -0.002923
          CHANNELS 3 Xrotation Yrotation Zrotation
          JOINT Head
          {
            OFFSET 0.0 0.088183 0.023986
            CHANNELS 3 Xrotation Yrotation Zrotation
            End Site
            {
              OFFSET 1e-06 0.123215 0.003678
            }
          }
        }
        JOINT LClavicle
        {
          OFFSET 0.014189 0.150698 0.046467
          CHANNELS 3 Xrotation Yrotation Zrotation
          JOINT LShoulder
          {
            OFFSET 0.082893 0.021616 -0.034976
            CHANNELS 3 Xrotation Yrotation Zrotation
            JOINT LForearm
            {
              OFFSET 0.195645 -0.000695 -0.001695
              CHANNELS 3 Xrotation Yrotation Zrotation
              JOINT LHand
              {
                OFFSET 0.163209 0.000474 -0.000977
                CHANNELS 3 Xrotation Yrotation Zrotation
                End Site
                {
                  OFFSET 0.0 0.006864 0.0
                }
              }
            }
          }
        }
        JOINT RClavicle
        {
          OFFSET -0.014189 0.150698 0.046467
          CHANNELS 3 Xrotation Yrotation Zrotation
          JOINT RShoulder
          {
            OFFSET -0.082908 0.021619 -0.034982
            CHANNELS 3 Xrotation Yrotation Zrotation
            JOINT RForearm
            {
              OFFSET -0.195645 -0.000695 -0.001695
              CHANNELS 3 Xrotation Yrotation Zrotation
              JOINT RHand
              {
                OFFSET -0.163209 0.000474 -0.000977
                CHANNELS 3 Xrotation Yrotation Zrotation
                End Site
                {
                  OFFSET 0.0 0.006864 0.0
                }
              }
            }
          }
        }
      }
    }
  }
  JOINT RThigh
  {
    OFFSET -0.072558 0.02774 -0.005953
    CHANNELS 3 Xrotation Yrotation Zrotation
    JOINT RShin
    {
      OFFSET -0.005253 -0.285537 0.0
      CHANNELS 3 Xrotation Yrotation Zrotation
      JOINT RFoot
      {
        OFFSET 0.0 -0.28038 0.0
        CHANNELS 3 Xrotation Yrotation Zrotation
        JOINT RToe
        {
          OFFSET 0.0 -0.030816 0.064441
          CHANNELS 3 Xrotation Yrotation Zrotation
          End Site
          {
            OFFSET 0.0 0.0 0.043231
          }
        }
      }
    }
  }
  JOINT LThigh
  {
    OFFSET 0.072557 0.027741 -0.005953
    CHANNELS 3 Xrotation Yrotation Zrotation
    JOINT LShin
    {
      OFFSET 0.005253 -0.285539 0.0
      CHANNELS 3 Xrotation Yrotation Zrotation
      JOINT LFoot
      {
        OFFSET 0.0 -0.28038 0.0
        CHANNELS 3 Xrotation Yrotation Zrotation
        JOINT LToe
        {
          OFFSET 0.0 -0.030816 0.064441
          CHANNELS 3 Xrotation Yrotation Zrotation
          End Site
          {
            OFFSET 0.0 0.0 0.043231
          }
        }
      }
    }
  }
}
MOTION
Frames: 12
Frame Time: 0.03333333333333333
0.013333 0.590262 0.000692 5.207963 9.280377 -2.752546 -2.087385 -0.597276 0.016727 -0.877835 0.878609 0.230778 -5.91155 2.17807 1.786619 -1.707595 0.13641 0.00066 -0.014897 0.072101 -0.015237 1.668632 0.879559 -17.608423 20.658051 -27.981623 -62.074905 10.251346 -24.075335 -1.500891 0.046303 0.03746 -0.103237 1.417326 -2.465385 16.038046 14.355157 33.184097 63.614346 7.434693 17.055851 1.631932 0.138999 -0.059918 0.007862 -4.497648 -4.66812 4.126745 12.678457 -2.343011 -0.664551 -0.982147 0.469985 -0.125873 -0.326234 0.07386 -0.016271 -2.314608 5.362821 -4.093861 7.394228 3.845669 -0.854582 -0.865168 -0.32928 -0.109247 -0.093558 0.031498 0.028292 
0.010479 0.589324 -0.002022 5.86727 11.621535 -2.217981 -1.862214 -0.596172 0.383987 -1.457585 0.230345 0.567317 -6.799683 1.567553 0.514368 -1.253482 0.156971 0.055112 0.013024 -0.098178 0.012645 1.106151 0.571089 -17.161356 22.04196 -27.681181 -62.227566 12.321027 -23.931215 -1.719079 0.033192 0.047692 -0.056149 1.13779 -0.981971 15.99256 16.054903 31.960569 62.838959 10.356256 19.284748 3.116189 -0.12824 0.017803 -0.008941 -5.64436 -3.09066 3.830657 15.026344 -2.449167 -1.291703 -0.391795 0.038493 -0.262926 -0.356791 -0.039364 0.052557 -2.090191 6.194302 -4.692894 4.587565 4.104164 -0.213299 -0.803842 -0.690189 -0.090758 -0.001428 -0.061401 -0.035668 
0.012449 0.583096 0.003975 6.368151 10.796723 -1.72256 -1.863724 -0.726484 0.375061 -1.577731 0.290011 0.835097 -7.467336 1.164767 0.1791 -1.249956 0.293616 0.011076 0.031058 -0.166855 0.017695 1.223677 0.40939 -17.413469 22.216619 -28.253393 -62.983448 12.599495 -25.43099 -2.288574 0.052031 0.093842 -0.063992 1.019039 -0.828451 15.825939 17.284977 31.277224 63.859913 11.170513 19.816133 3.892356 -0.191844 -0.015307 -0.011126 -5.523981 -3.061829 4.424036 12.525487 -2.79104 -1.433456 -0.836086 0.295502 -0.310763 -0.27463 0.057014 0.099729 -2.765807 5.228618 -4.719023 4.117356 4.076772 0.088665 -0.766106 -0.603164 0.104138 0.035765 -0.097316 -0.046939 
0.017602 0.579137 0.011761 6.225425 8.326089 -1.574081 -1.838677 -0.829832 0.367783 -1.588017 0.3241 0.912963 -7.940311 0.973261 0.129888 -1.200767 0.350549 0.00846 0.037818 -0.210737 0.014175 1.195345 0.200441 -17.78754 21.498133 -28.902449 -64.190063 12.098392 -24.186222 -2.319594 0.059867 0.112962 -0.073204 0.956421 -0.866629 15.676241 17.233299 30.836634 65.027245 11.3676 19.789509 3.94169 -0.228298 -0.020369 -0.015294 -5.002652 -3.833061 4.971728 11.214611 -3.176606 -1.491497 -0.962688 0.41222 -0.342241 -0.264068 0.088897 0.117375 -2.849355 4.476548 -4.619729 4.107836 3.692813 0.107298 -0.907168 -0.436957 0.23964 0.04918 -0.108905 -0.055683 
0.01398 0.578177 0.024882 6.387379 6.682714 -1.556023 -1.781332 -0.89909 0.328767 -1.627462 0.326106 0.924872 -8.30957 0.836827 0.015739 -1.204281 0.390347 0.029045 0.038901 -0.229154 0.012156 1.181905 0.009646 -17.886038 20.639431 -29.555847 -64.689156 11.34396 -23.137632 -2.332628 0.062591 0.119146 -0.075372 0.872041 -0.901591 15.748931 17.063038 30.90089 65.833 11.15934 18.823591 3.786828 -0.236145 -0.023852 -0.017379 -5.06283 -4.376913 5.300333 10.635504 -3.416008 -1.448115 -1.035558 0.446398 -0.362546 -0.254515 0.113346 0.123996 -2.882158 3.954628 -4.682827 4.088191 3.352379 0.075171 -1.07462 -0.367362 0.2973 0.048591 -0.108498 -0.058258 
0.012098 0.575316 0.03493 6.682415 5.527526 -1.510651 -1.713574 -0.935645 0.252342 -1.684874 0.308559 0.888735 -8.559498 0.691546 -0.075246 -1.189223 0.405907 0.055275 0.03571 -0.21998 0.011535 1.200328 -0.059102 -17.784958 19.745504 -30.235069 -65.002754 10.554688 -22.06333 -2.378385 0.059389 0.111597 -0.06735 0.78718 -0.885584 15.893056 16.593063 31.548107 66.467056 10.644457 17.016594 3.719755 -0.221192 -0.02434 -0.016571 -5.671187 -4.704969 5.492932 10.329888 -3.515425 -1.311954 -1.185373 0.425661 -0.37193 -0.236498 0.121832 0.121062 -3.196071 3.597827 -4.6442 4.198041 3.126162 0.063796 -1.238618 -0.296575 0.300107 0.037602 -0.095216 -0.053879 
0.011486 0.571815 0.042429 6.909624 4.905124 -1.517833 -1.661615 -0.954932 0.179377 -1.725214 0.302384 0.844415 -8.574787 0.560962 -0.12775 -1.189116 0.405579 0.070602 0.032453 -0.203127 0.009721 1.226812 -0.071835 -17.653389 18.938862 -30.833681 -65.260529 9.824817 -21.328686 -2.377395 0.055124 0.100966 -0.056534 0.713395 -0.863244 16.052691 16.06138 32.288265 66.980431 10.059891 15.125134 3.672782 -0.196091 -0.027712 -0.014873 -6.471472 -4.890488 5.702933 9.81867 -3.500318 -1.197843 -1.351553 0.413136 -0.369957 -0.209105 0.125815 0.116373 -3.578527 3.345983 -4.404818 4.577251 3.016988 0.040479 -1.369091 -0.214116 0.286905 0.023806 -0.080484 -0.047521 
0.01146 0.569346 0.050236 7.119071 4.455629 -1.56092 -1.628081 -0.972498 0.130826 -1.75047 0.288601 0.854258 -8.496298 0.377734 -0.06713 -1.239983 0.400125 0.064916 0.032721 -0.199226 0.004746 1.223726 -0.110276 -17.588511 18.316895 -31.315874 -65.477287 9.390443 -21.032797 -2.213792 0.054739 0.099455 -0.052279 0.639907 -0.848641 16.112526 15.869608 32.455685 67.411903 9.478415 13.732192 3.560786 -0.184828 -0.03166 -0.015397 -7.28776 -5.227108 5.875529 8.977018 -3.580796 -1.134845 -1.49156 0.447305 -0.374256 -0.183679 0.138835 0.117758 -4.223603 3.000909 -3.882829 5.689121 2.87917 -0.018578 -1.438203 -0.122811 0.302623 0.012669 -0.076077 -0.046995 
0.011002 0.567611 0.059318 7.639866 4.023699 -1.517281 -1.631271 -1.000466 0.094885 -1.770225 0.305941 0.864445 -8.348945 0.15088 0.077417 -1.325354 0.389857 0.044622 0.032247 -0.197765 -0.000375 1.246778 -0.087342 -17.614567 17.700832 -31.738972 -65.433014 8.865823 -21.155073 -2.027711 0.055219 0.101651 -0.050621 0.566308 -0.83768 16.179527 15.938064 32.095726 67.83625 8.755303 12.396388 3.346867 -0.16978 -0.041985 -0.015649 -8.573804 -5.622976 6.131994 7.982728 -3.677844 -1.103842 -1.638007 0.540169 -0.374234 -0.157181 0.150591 0.117596 -4.976033 2.657664 -3.322131 7.1682 2.730008 -0.098449 -1.464521 -0.050866 0.331993 -0.008492 -0.075589 -0.048733 
0.010594 0.566043 0.070972 8.127364 3.588304 -1.477183 -1.659865 -1.043832 0.072712 -1.809705 0.308111 0.874016 -8.239256 0.008031 0.263549 -1.39359 0.385337 0.027997 0.03112 -0.194973 -0.004415 1.300136 -0.045767 -17.727453 17.278502 -31.993187 -65.181503 8.424937 -21.611374 -1.878107 0.053287 0.100999 -0.047628 0.523132 -0.862449 16.227924 16.126175 31.268356 68.347839 8.092713 11.290274 3.12964 -0.155017 -0.049212 -0.015664 -9.826994 -6.018475 6.369944 6.92768 -3.805338 -1.073111 -1.790481 0.682993 -0.350838 -0.127797 0.159106 0.115446 -5.2406 2.566424 -2.826147 8.779563 2.702489 -0.124247 -1.487637 0.025549 0.371203 -0.039298 -0.074181 -0.048773 
0.010655 0.56451 0.085243 8.304291 3.213868 -1.654353 -1.735577 -1.103813 0.069421 -1.807571 0.333954 0.898068 -8.184646 -0.033349 0.337183 -1.462137 0.393568 0.015317 0.03168 -0.203536 -0.009962 1.339538 -0.061278 -17.846508 17.446009 -32.118576 -64.690033 8.229029 -22.248167 -1.711883 0.054166 0.105777 -0.049076 0.50738 -0.981373 16.255726 16.631561 30.303925 68.780045 7.900033 10.856317 2.864505 -0.154236 -0.056382 -0.017732 -10.592813 -6.418356 6.575347 5.572962 -3.949829 -1.076835 -1.737317 0.899309 -0.302724 -0.115975 0.169782 0.118856 -4.936461 2.693234 -2.199672 10.36086 2.799049 -0.254628 -1.497411 0.083512 0.415368 -0.067526 -0.079163 -0.050987 
0.010981 0.563015 0.100931 8.560814 2.782265 -1.957938 -1.842846 -1.156912 0.070774 -1.81061 0.370123 0.896738 -8.096729 -0.026587 0.39612 -1.530803 0.397692 -0.020696 0.032967 -0.214433 -0.013105 1.360858 -0.077426 -18.044498 17.773088 -32.310341 -64.14518 8.238021 -23.033413 -1.514059 0.052482 0.107164 -0.046297 0.470616 -1.075521 16.285261 17.166004 28.961317 69.20388 7.900399 10.876238 2.558531 -0.160911 -0.057802 -0.021417 -11.515733 -6.700551 6.663762 4.445953 -4.090388 -1.095176 -1.565677 1.119979 -0.252405 -0.105973 0.172271 0.121499 -4.399264 2.915944 -1.544862 11.449465 2.97394 -0.37205 -1.499739 0.13281 0.455825 -0.097875 -0.081506 -0.052551 
